<?xml version="1.0" standalone="no"?>
<!DOCTYPE svg PUBLIC "-//W3C//DTD SVG 20010904//EN"
 "http://www.w3.org/TR/2001/REC-SVG-20010904/DTD/svg10.dtd">
<svg version="1.0" xmlns="http://www.w3.org/2000/svg"
 width="3600.000000pt" height="3600.000000pt" viewBox="0 0 3600.000000 3600.000000"
 preserveAspectRatio="xMidYMid meet">
<metadata>
Created by potrace 1.14, written by Peter Selinger 2001-2017
</metadata>
<g transform="translate(0.000000,3600.000000) scale(0.100000,-0.100000)"
fill="#000000" stroke="none">
<path d="M0 18000 l0 -18000 18000 0 18000 0 0 18000 0 18000 -18000 0 -18000
0 0 -18000z m12335 8590 c586 -41 1044 -145 1475 -334 105 -46 128 -52 154
-45 158 46 721 142 1046 179 372 42 437 45 950 45 518 0 632 -6 970 -51 547
-72 1193 -235 1755 -444 1306 -486 2394 -1220 3980 -2685 1151 -1063 1695
-1518 2318 -1939 580 -393 978 -580 2618 -1229 835 -332 1137 -461 1245 -535
231 -156 357 -439 324 -729 -67 -601 -378 -1081 -945 -1460 -303 -202 -741
-393 -1110 -484 -49 -12 -95 -27 -102 -33 -6 -6 -39 -63 -73 -126 -456 -846
-1182 -1335 -2210 -1489 -593 -89 -1166 -91 -2675 -11 -563 30 -1326 38 -1759
20 -1033 -45 -1981 -232 -2774 -549 -1334 -533 -2356 -1314 -3014 -2301 -417
-626 -689 -1322 -792 -2030 -33 -226 -38 -352 -25 -658 6 -161 10 -295 7 -297
-4 -4 -502 196 -668 269 -221 97 -580 298 -830 466 -221 148 -517 378 -725
563 -140 125 -514 498 -644 642 -571 634 -1143 1460 -1516 2188 -38 75 -73
137 -77 137 -3 0 -234 -233 -513 -517 -279 -285 -510 -517 -513 -516 -8 3
-233 632 -280 785 -180 581 -283 1153 -334 1853 -17 228 -17 1037 0 1265 62
839 164 1480 358 2249 41 162 73 296 71 297 -1 1 -270 -51 -597 -117 -327 -65
-598 -118 -601 -117 -6 3 127 526 200 783 114 404 323 969 507 1373 250 547
587 1128 924 1592 42 58 79 110 83 117 11 19 -739 703 -1346 1227 -114 99
-205 181 -202 184 2 2 478 179 1057 392 579 213 1054 392 1055 397 2 5 -94
200 -213 432 -118 233 -212 427 -207 432 10 10 280 130 470 209 855 356 1674
556 2473 603 133 8 577 6 705 -3z"/>
<path d="M11536 25885 c-316 -28 -676 -87 -949 -156 -355 -89 -946 -281 -940
-306 1 -4 103 -208 227 -452 124 -244 225 -445 223 -446 -1 -2 -387 -145 -857
-318 -470 -174 -865 -319 -878 -324 -20 -8 -4 -25 175 -188 466 -425 803 -744
1173 -1110 458 -453 534 -518 760 -655 333 -201 704 -314 1155 -350 77 -6 180
-10 228 -8 l89 3 -89 61 c-533 370 -1065 891 -1346 1317 -119 181 -398 639
-393 645 4 3 437 -13 963 -36 526 -23 958 -40 960 -38 2 2 -98 158 -223 347
-367 556 -605 921 -602 925 9 8 577 144 663 158 316 51 632 70 1030 63 542
-10 939 -60 1498 -188 121 -28 221 -49 223 -47 7 7 -221 251 -302 324 -294
261 -617 454 -989 589 -237 86 -461 134 -815 176 -231 27 -750 35 -984 14z"/>
<path d="M15450 25769 c-198 -14 -700 -74 -650 -78 8 -1 113 -12 234 -26 1006
-115 2004 -412 2961 -879 1455 -711 2781 -1769 4120 -3291 77 -87 189 -215
250 -284 133 -153 361 -380 549 -548 656 -587 1508 -1085 2306 -1350 90 -30
166 -56 168 -57 7 -7 -139 -117 -198 -149 -142 -78 -378 -140 -645 -168 -192
-21 -601 -16 -855 10 -842 87 -1821 343 -3035 794 -519 193 -759 269 -1195
377 -835 208 -1725 284 -2450 210 -107 -11 -233 -27 -280 -35 -47 -8 -91 -15
-98 -15 -6 0 139 226 323 502 184 276 333 503 332 504 -1 1 -128 10 -282 20
-344 22 -1225 25 -1510 5 -1103 -77 -1956 -261 -2794 -601 -1074 -435 -1974
-1124 -2661 -2035 -438 -581 -810 -1297 -1064 -2047 -161 -476 -295 -1027
-376 -1548 -58 -369 -110 -899 -110 -1119 l0 -95 347 355 c191 195 406 414
478 487 l130 133 115 -273 c229 -549 608 -1244 938 -1723 385 -558 732 -976
1148 -1385 380 -373 723 -647 1104 -882 164 -101 284 -164 277 -145 -20 53
-81 262 -112 384 -135 541 -194 1095 -182 1698 14 645 103 1245 282 1906 62
225 205 663 284 863 28 72 49 131 48 131 -1 1 -166 37 -367 80 -201 43 -369
81 -373 86 -18 15 142 246 303 438 411 490 991 921 1630 1211 614 279 1279
444 2078 516 82 7 77 -1 87 124 11 136 56 431 96 639 22 111 39 207 37 212 -2
5 -124 -70 -272 -166 -148 -97 -271 -173 -274 -171 -12 12 34 151 83 251 72
148 153 256 304 405 326 324 783 526 1236 547 180 9 397 -23 514 -74 l36 -15
-100 -48 c-55 -26 -179 -77 -275 -114 -222 -84 -390 -150 -387 -152 1 -1 106
1 232 5 762 24 1549 -98 2350 -364 961 -319 1885 -816 2843 -1530 242 -180
307 -222 457 -295 274 -133 585 -224 890 -262 148 -18 476 -15 620 5 497 70
994 304 1419 669 l38 34 -56 83 c-113 166 -185 347 -233 586 -14 71 -18 137
-17 310 0 204 2 227 26 316 47 174 115 278 208 318 50 21 52 21 193 7 288 -31
455 -38 1062 -43 341 -3 636 -3 655 -1 l35 3 -50 23 c-113 53 -508 215 -1155
475 -1653 664 -1959 809 -2590 1232 -422 283 -820 592 -1314 1020 -229 198
-419 369 -1052 946 -756 690 -1130 1008 -1600 1362 -719 541 -1453 951 -2209
1235 -664 249 -1386 409 -2039 452 -184 12 -783 11 -966 -1z m9545 -7428 c76
-35 115 -95 115 -177 0 -100 -92 -194 -190 -194 -37 0 -93 24 -126 52 -48 42
-67 83 -67 143 0 143 140 235 268 176z m-492 -685 c18 -7 46 -29 64 -49 112
-128 27 -321 -142 -319 -62 0 -101 18 -143 66 -28 33 -52 89 -52 126 0 34 22
91 47 120 53 64 151 88 226 56z m980 1 c45 -19 105 -89 113 -132 24 -128 -64
-238 -191 -238 -159 0 -246 182 -149 311 50 64 150 91 227 59z"/>
<path d="M19464 22164 c25 -448 181 -908 419 -1237 42 -58 60 -73 121 -104
233 -117 651 -205 1189 -248 238 -19 317 -19 317 -2 0 23 -183 378 -250 484
l-63 101 -46 -46 c-95 -94 -234 -160 -390 -182 -270 -40 -559 83 -647 275 -39
84 -56 225 -35 279 7 17 10 16 35 -17 16 -21 54 -49 89 -67 52 -26 71 -30 138
-30 178 0 272 76 314 252 27 114 25 120 -62 190 -163 129 -407 268 -605 344
-151 58 -433 124 -527 124 -2 0 -1 -52 3 -116z"/>
<path d="M27442 18729 c-118 -13 -254 -44 -310 -72 -40 -20 -47 -28 -47 -53 0
-165 1138 -195 1318 -34 30 27 31 28 14 53 -29 45 -173 86 -376 106 -120 13
-479 12 -599 0z"/>
<path d="M17810 18723 c-91 -6 -266 -24 -287 -30 -20 -4 -23 -12 -23 -54 0
-26 7 -101 15 -166 47 -358 164 -691 332 -939 68 -101 141 -194 153 -194 3 0
28 42 55 93 144 274 317 496 495 632 69 53 217 145 233 145 5 0 -31 -43 -81
-94 -79 -83 -260 -331 -249 -342 2 -2 64 0 138 6 234 18 719 23 1024 11 653
-26 1240 -98 1830 -222 127 -27 680 -161 722 -176 10 -3 -67 47 -172 112
-1156 713 -2372 1135 -3507 1215 -132 9 -564 11 -678 3z"/>
<path d="M17207 18160 c-3 -8 -13 -67 -21 -130 -59 -429 -65 -917 -15 -1150
13 -63 61 -134 117 -177 73 -55 272 -108 532 -140 176 -21 725 -24 995 -5 700
51 1751 219 2685 432 74 16 205 46 290 65 85 20 196 46 245 59 l90 23 -70 22
c-38 11 -169 46 -290 77 -906 228 -1941 338 -2860 305 -283 -11 -580 -32 -589
-42 -11 -14 -121 -365 -145 -467 -16 -68 -31 -126 -34 -128 -2 -2 -64 37 -138
88 -166 115 -374 316 -466 453 -136 201 -219 378 -287 611 -19 65 -37 112 -39
104z"/>
</g>
</svg>
